<svg xmlns="http://www.w3.org/2000/svg" viewBox="0 0 281.65 80.16"><defs><style>.cls-1{fill:#fff;}</style></defs><title>apticx logotype</title><g id="Layer_2" data-name="Layer 2"><g id="mark_tiny" data-name="mark tiny"><path class="cls-1" d="M142.14,21.93a11.39,11.39,0,1,1-11.39-11.4A11.39,11.39,0,0,1,142.14,21.93ZM130.75,48.51A11.39,11.39,0,1,0,142.14,59.9,11.39,11.39,0,0,0,130.75,48.51Zm19-19a11.39,11.39,0,1,0,11.4,11.39A11.39,11.39,0,0,0,149.73,29.52Zm-38,0a11.39,11.39,0,1,0,11.39,11.39A11.39,11.39,0,0,0,111.76,29.52Zm123.6-10.09a11.39,11.39,0,1,0,16.11,0A11.39,11.39,0,0,0,235.36,19.43Zm26.85,26.85a11.39,11.39,0,1,0,16.11,0A11.39,11.39,0,0,0,262.21,46.28Zm0-26.85a11.39,11.39,0,1,0,16.11,0A11.39,11.39,0,0,0,262.21,19.43ZM235.36,46.28a11.39,11.39,0,1,0,16.11,0A11.39,11.39,0,0,0,235.36,46.28ZM26.17,62.77a16,16,0,0,0,6.09-6.43h.81l-.72-2.09v2.39a12.38,12.38,0,0,0,.76,4.54,6.25,6.25,0,0,0,2.37,3,7.1,7.1,0,0,0,4,1.07,10.45,10.45,0,0,0,3.84-.69v-4h-.21a5.27,5.27,0,0,1-.92.29,4.55,4.55,0,0,1-1.13.13,3,3,0,0,1-2.79-1.36,8.12,8.12,0,0,1-.79-4V31.71a17.08,17.08,0,0,0-1.38-7.21,11.64,11.64,0,0,0-4-4.77,15.94,15.94,0,0,0-5-2.19,25.48,25.48,0,0,0-6.42-.75,21.91,21.91,0,0,0-10.18,2.07A14.29,14.29,0,0,0,4.6,24.27a15.92,15.92,0,0,0-2.17,7.27H7.88a10.74,10.74,0,0,1,3.52-7.8Q14.58,21,20.75,21q5.71,0,8.61,2.66A9.46,9.46,0,0,1,32.26,31a5.3,5.3,0,0,1-1.41,3.9A8.91,8.91,0,0,1,26.57,37a56.69,56.69,0,0,1-7.26,1.24,57.36,57.36,0,0,0-10,2,14.66,14.66,0,0,0-6.84,4.18Q0,47.31,0,52.46a12.13,12.13,0,0,0,2,7.12A12.62,12.62,0,0,0,7.59,64a20.35,20.35,0,0,0,8,1.49A19.58,19.58,0,0,0,26.17,62.77ZM11.7,60.49a8.75,8.75,0,0,1-4.18-2.72,8.07,8.07,0,0,1-1.64-5.35A8.13,8.13,0,0,1,7.61,46.9a10.8,10.8,0,0,1,4.94-3,49.34,49.34,0,0,1,7.74-1.72c2.1-.32,3.92-.67,5.47-1.07a24,24,0,0,0,4-1.34,12,12,0,0,0,2.63-1.56v9.29a13,13,0,0,1-1.86,6.69,14.09,14.09,0,0,1-5.3,5.14,16.57,16.57,0,0,1-8.36,2A17,17,0,0,1,11.7,60.49ZM56,80.16V64.05c0-1.73,0-3.32,0-4.75s-.06-2.72-.09-3.86h.22a16.39,16.39,0,0,0,6.39,7.5,18,18,0,0,0,9.88,2.73,19,19,0,0,0,10.72-3,19.89,19.89,0,0,0,7.12-8.55,30.72,30.72,0,0,0,2.53-12.93,30.1,30.1,0,0,0-2.66-13.36A18.74,18.74,0,0,0,72.62,16.75,18.48,18.48,0,0,0,65.84,18a16.54,16.54,0,0,0-5.6,3.65,19.26,19.26,0,0,0-4.07,6H56V17.73H50.41V80.16ZM63,58.45a15.41,15.41,0,0,1-5.41-7,26.54,26.54,0,0,1-1.81-10.14,25.82,25.82,0,0,1,1.9-10.19,16.15,16.15,0,0,1,5.5-7,14.55,14.55,0,0,1,8.71-2.58,13.58,13.58,0,0,1,8,2.37,15.43,15.43,0,0,1,5.29,6.77A26.94,26.94,0,0,1,87,41.29a26.6,26.6,0,0,1-1.85,10.28,16.06,16.06,0,0,1-5.24,6.92A13.35,13.35,0,0,1,71.81,61,15,15,0,0,1,63,58.45ZM174.43,7.84V0h-5.84V7.84Zm-.09,56.77V17.73h-5.62V64.61Zm42-1.13a16.64,16.64,0,0,0,6.8-6.08,20.72,20.72,0,0,0,3-9.16h-5.54a13.91,13.91,0,0,1-4.45,9.4Q212.31,61,205.92,61a15.3,15.3,0,0,1-8.78-2.53,16.72,16.72,0,0,1-5.82-7,24.63,24.63,0,0,1-2.06-10.34,24.09,24.09,0,0,1,2.09-10.35,16.45,16.45,0,0,1,5.83-7,15.45,15.45,0,0,1,8.74-2.49,17.36,17.36,0,0,1,6.71,1.25,12.56,12.56,0,0,1,5,3.77,14.66,14.66,0,0,1,2.77,6.27H226a19.18,19.18,0,0,0-3.54-8.48,17.73,17.73,0,0,0-6.86-5.46,22.93,22.93,0,0,0-9.67-1.91A21.18,21.18,0,0,0,194,20a22,22,0,0,0-7.76,8.82,27.37,27.37,0,0,0-2.72,12.25,27.79,27.79,0,0,0,2.72,12.32A22.16,22.16,0,0,0,194,62.31a21.11,21.11,0,0,0,11.89,3.32A23.25,23.25,0,0,0,216.34,63.48Z"/></g></g></svg>