<svg xmlns="http://www.w3.org/2000/svg" viewBox="0 0 915.51 282.87"><defs><style>.cls-1{fill:#fff;}</style></defs><title>Asset 1</title><g id="Layer_2" data-name="Layer 2"><g id="mark_fill" data-name="mark fill"><path class="cls-1" d="M509.35,177.79H463.77v45.57H395.4V177.79H349.83V109.42H395.4V63.84h68.37v45.58h45.58ZM867.17,63,834.94,95.26,802.71,63l-48.34,48.34L786.6,143.6l-32.23,32.23,48.34,48.34L834.94,192l32.23,32.22,48.34-48.34L883.28,143.6l32.23-32.22ZM94.34,220.93q16.35-10.29,22.26-25.44h3.48l-3.18-5.6v13.63a44.47,44.47,0,0,0,1.89,13,20.23,20.23,0,0,0,6.67,10.07q4.77,3.85,13.55,3.86a30.55,30.55,0,0,0,7.12-.76,27.66,27.66,0,0,0,5.15-1.66v-9.69h-.76a32,32,0,0,1-3.63,1.28,16.63,16.63,0,0,1-4.85.69q-7.12,0-10.07-4.62T129,201.25V111q0-13.64-4.17-23.7a39,39,0,0,0-12.49-16.43,50.37,50.37,0,0,0-17.42-8.71,82.89,82.89,0,0,0-23.16-2.95Q50,59.21,36.34,66.4T16.13,85.25a57.55,57.55,0,0,0-7.35,25.44H21.5Q23,90.25,35.51,79.8T71.93,69.35q22.56,0,33.77,10.68t11.2,29.6q0,9.09-5.07,14.39t-16.2,8.1a269.33,269.33,0,0,1-29.46,5.22,189.84,189.84,0,0,0-33.76,7q-15,4.69-23.7,14.39T0,186.1q0,14.24,7,24.31a44.3,44.3,0,0,0,19.3,15.44,69.78,69.78,0,0,0,28.09,5.38Q78,231.23,94.34,220.93ZM36.8,218a35.91,35.91,0,0,1-16.58-11q-6.6-7.73-6.59-21.05t6.36-21q6.36-7.71,18.78-11.88t30.43-6.44A238.16,238.16,0,0,0,93.36,142a73.51,73.51,0,0,0,15.06-5.3,29.61,29.61,0,0,0,8.48-6.06v37.4a49.78,49.78,0,0,1-7.49,27,53.77,53.77,0,0,1-21,19.08q-13.56,7.11-31.57,7.11A64.18,64.18,0,0,1,36.8,218Zm147.49,64.89V220.93q0-9.24-.07-17.41T184,188.07h.76A61.39,61.39,0,0,0,208,219.8q16.74,11.88,38.84,11.88,21.36,0,37.56-10.67t25.36-30.14q9.17-19.45,9.16-45.8,0-28.62-9.76-47.7t-26-28.7a70.62,70.62,0,0,0-61.64-4.62A60.59,60.59,0,0,0,199.66,79.2q-9.47,10.14-14.76,25.44h-.76V61.93H171.42V282.87Zm28.4-71.63q-13.86-9.39-21.43-26.27t-7.57-39q0-22.41,7.72-39.45T213,79.88q13.86-9.61,32.48-9.62a56.78,56.78,0,0,1,30.59,8.48q13.62,8.49,21.65,25.14t8,41.64q0,22.71-7.72,39.6t-21.2,26.2q-13.49,9.31-31.2,9.31Q226.54,220.63,212.69,211.24ZM553.15,23.32V0H539.68V23.32Zm-.3,205.18V61.93H540V228.5ZM701,223.88a58.18,58.18,0,0,0,23.77-21.27,72.08,72.08,0,0,0,10.38-31.35H722.26q-2.71,23.78-18.09,36.57t-40.36,12.8a60.51,60.51,0,0,1-33.31-9.39q-14.68-9.39-23.25-26.42t-8.55-39.9q0-23.32,8.63-40.21t23.32-26a61.32,61.32,0,0,1,33.16-9.16,70.71,70.71,0,0,1,26.05,4.69,51,51,0,0,1,20.29,14.38q8.33,9.7,11.51,25h13Q731.5,96.31,722,84a61.79,61.79,0,0,0-24.3-18.77q-14.77-6.51-33.85-6.52-24.07,0-41.64,11.74a77.94,77.94,0,0,0-27.1,31.27q-9.55,19.53-9.55,43.16a98,98,0,0,0,9.55,43.23,78.14,78.14,0,0,0,27.1,31.57q17.57,11.81,41.64,11.81Q685.77,231.53,701,223.88Z"/></g></g></svg>