<?xml version="1.0" encoding="UTF-8" standalone="no" ?>
<!DOCTYPE svg PUBLIC "-//W3C//DTD SVG 1.1//EN" "http://www.w3.org/Graphics/SVG/1.1/DTD/svg11.dtd">
<svg xmlns="http://www.w3.org/2000/svg" xmlns:xlink="http://www.w3.org/1999/xlink" version="1.1" width="500" height="500" viewBox="0 0 500 500" xml:space="preserve">
<desc>Created with Fabric.js 4.6.0</desc>
<defs>
</defs>
<g transform="matrix(1.25 0 0 1.25 320.39 199.3)" id="wyApYgtao4xmJY_TEp5Xe"  >
<path style="stroke: rgb(33,175,60); stroke-width: 0; stroke-dasharray: none; stroke-linecap: butt; stroke-dashoffset: 0; stroke-linejoin: miter; stroke-miterlimit: 4; fill: rgb(255,255,255); fill-rule: nonzero; opacity: 1;" vector-effect="non-scaling-stroke"  transform=" translate(0, 0)" d="M 0 -40.64824 C 22.43783 -40.64824 40.64824 -22.43783 40.64824 0 C 40.64824 22.43783 22.43783 40.64824 0 40.64824 C -22.43783 40.64824 -40.64824 22.43783 -40.64824 0 C -40.64824 -22.43783 -22.43783 -40.64824 0 -40.64824 z" stroke-linecap="round" />
</g>
<g transform="matrix(1.25 0 0 1.25 421.79 199.3)" id="5j0UkB1eQZIyMaEKaAnjv"  >
<path style="stroke: rgb(33,175,60); stroke-width: 0; stroke-dasharray: none; stroke-linecap: butt; stroke-dashoffset: 0; stroke-linejoin: miter; stroke-miterlimit: 4; fill: rgb(255,255,255); fill-rule: nonzero; opacity: 1;" vector-effect="non-scaling-stroke"  transform=" translate(0, 0)" d="M 0 -40.64824 C 22.43783 -40.64824 40.64824 -22.43783 40.64824 0 C 40.64824 22.43783 22.43783 40.64824 0 40.64824 C -22.43783 40.64824 -40.64824 22.43783 -40.64824 0 C -40.64824 -22.43783 -22.43783 -40.64824 0 -40.64824 z" stroke-linecap="round" />
</g>
<g transform="matrix(1.25 0 0 1.25 320.39 300.7)" id="z7MoqZepUi-Id6psRP8IC"  >
<path style="stroke: rgb(33,175,60); stroke-width: 0; stroke-dasharray: none; stroke-linecap: butt; stroke-dashoffset: 0; stroke-linejoin: miter; stroke-miterlimit: 4; fill: rgb(255,255,255); fill-rule: nonzero; opacity: 1;" vector-effect="non-scaling-stroke"  transform=" translate(0, 0)" d="M 0 -40.64824 C 22.43783 -40.64824 40.64824 -22.43783 40.64824 0 C 40.64824 22.43783 22.43783 40.64824 0 40.64824 C -22.43783 40.64824 -40.64824 22.43783 -40.64824 0 C -40.64824 -22.43783 -22.43783 -40.64824 0 -40.64824 z" stroke-linecap="round" />
</g>
<g transform="matrix(1.25 0 0 1.25 421.79 300.7)" id="77i5-v7k8acqRF3O_sbTB"  >
<path style="stroke: rgb(33,175,60); stroke-width: 0; stroke-dasharray: none; stroke-linecap: butt; stroke-dashoffset: 0; stroke-linejoin: miter; stroke-miterlimit: 4; fill: rgb(255,255,255); fill-rule: nonzero; opacity: 1;" vector-effect="non-scaling-stroke"  transform=" translate(0, 0)" d="M 0 -40.64824 C 22.43783 -40.64824 40.64824 -22.43783 40.64824 0 C 40.64824 22.43783 22.43783 40.64824 0 40.64824 C -22.43783 40.64824 -40.64824 22.43783 -40.64824 0 C -40.64824 -22.43783 -22.43783 -40.64824 0 -40.64824 z" stroke-linecap="round" />
</g>
<g transform="matrix(0.88 0.88 -0.88 0.88 143.98 178.3)" id="RtqtnHheIrJnRFatZCK60"  >
<path style="stroke: rgb(33,175,60); stroke-width: 0; stroke-dasharray: none; stroke-linecap: butt; stroke-dashoffset: 0; stroke-linejoin: miter; stroke-miterlimit: 4; fill: rgb(255,255,255); fill-rule: nonzero; opacity: 1;" vector-effect="non-scaling-stroke"  transform=" translate(0, 0)" d="M 0 -40.64824 C 22.43783 -40.64824 40.64824 -22.43783 40.64824 0 C 40.64824 22.43783 22.43783 40.64824 0 40.64824 C -22.43783 40.64824 -40.64824 22.43783 -40.64824 0 C -40.64824 -22.43783 -22.43783 -40.64824 0 -40.64824 z" stroke-linecap="round" />
</g>
<g transform="matrix(0.88 0.88 -0.88 0.88 215.68 250)" id="kwKaYjAnOnZE09XOJNOBZ"  >
<path style="stroke: rgb(33,175,60); stroke-width: 0; stroke-dasharray: none; stroke-linecap: butt; stroke-dashoffset: 0; stroke-linejoin: miter; stroke-miterlimit: 4; fill: rgb(255,255,255); fill-rule: nonzero; opacity: 1;" vector-effect="non-scaling-stroke"  transform=" translate(0, 0)" d="M 0 -40.64824 C 22.43783 -40.64824 40.64824 -22.43783 40.64824 0 C 40.64824 22.43783 22.43783 40.64824 0 40.64824 C -22.43783 40.64824 -40.64824 22.43783 -40.64824 0 C -40.64824 -22.43783 -22.43783 -40.64824 0 -40.64824 z" stroke-linecap="round" />
</g>
<g transform="matrix(0.88 0.88 -0.88 0.88 72.28 250)" id="pbr5iCPHQriI9jSa6269u"  >
<path style="stroke: rgb(33,175,60); stroke-width: 0; stroke-dasharray: none; stroke-linecap: butt; stroke-dashoffset: 0; stroke-linejoin: miter; stroke-miterlimit: 4; fill: rgb(255,255,255); fill-rule: nonzero; opacity: 1;" vector-effect="non-scaling-stroke"  transform=" translate(0, 0)" d="M 0 -40.64824 C 22.43783 -40.64824 40.64824 -22.43783 40.64824 0 C 40.64824 22.43783 22.43783 40.64824 0 40.64824 C -22.43783 40.64824 -40.64824 22.43783 -40.64824 0 C -40.64824 -22.43783 -22.43783 -40.64824 0 -40.64824 z" stroke-linecap="round" />
</g>
<g transform="matrix(0.88 0.88 -0.88 0.88 143.98 321.7)" id="4os5Ie6b7DbNaA6_bKMeg"  >
<path style="stroke: rgb(33,175,60); stroke-width: 0; stroke-dasharray: none; stroke-linecap: butt; stroke-dashoffset: 0; stroke-linejoin: miter; stroke-miterlimit: 4; fill: rgb(255,255,255); fill-rule: nonzero; opacity: 1;" vector-effect="non-scaling-stroke"  transform=" translate(0, 0)" d="M 0 -40.64824 C 22.43783 -40.64824 40.64824 -22.43783 40.64824 0 C 40.64824 22.43783 22.43783 40.64824 0 40.64824 C -22.43783 40.64824 -40.64824 22.43783 -40.64824 0 C -40.64824 -22.43783 -22.43783 -40.64824 0 -40.64824 z" stroke-linecap="round" />
</g>
</svg>