<svg xmlns="http://www.w3.org/2000/svg" viewBox="0 0 251.48 77.46"><defs><style>.cls-1{fill:#fff;}</style></defs><title>Asset 2</title><g id="Layer_2" data-name="Layer 2"><g id="mark_tiny" data-name="mark tiny"><path class="cls-1" d="M139.52,48.64h-12.4V61H108.53V48.64H96.14V30.05h12.39V17.65h18.59v12.4h12.4Zm98.81-31.21-8.76,8.77-8.77-8.77L207.66,30.58l8.76,8.76-8.76,8.77L220.8,61.25l8.77-8.76,8.76,8.76,13.15-13.14-8.77-8.77,8.77-8.76Zm-213,43.23a15.46,15.46,0,0,0,5.88-6.22H32l-.7-2v2.31A11.81,11.81,0,0,0,32,59.12,6,6,0,0,0,34.28,62a6.86,6.86,0,0,0,3.9,1,9.88,9.88,0,0,0,2.16-.21,8.77,8.77,0,0,0,1.54-.45V58.48h-.2a6.21,6.21,0,0,1-.89.29,4.79,4.79,0,0,1-1.09.12A2.86,2.86,0,0,1,37,57.57a7.86,7.86,0,0,1-.76-3.87V30.64a16.46,16.46,0,0,0-1.34-7,11.14,11.14,0,0,0-3.85-4.61A15.16,15.16,0,0,0,26.21,17a24.72,24.72,0,0,0-6.2-.72,21.29,21.29,0,0,0-9.84,2,13.83,13.83,0,0,0-5.72,5.23,15.2,15.2,0,0,0-2.1,7H7.62A10.36,10.36,0,0,1,11,22.94q3.06-2.64,9-2.64c3.67,0,6.45.86,8.31,2.58a9.09,9.09,0,0,1,2.8,7.06,5.16,5.16,0,0,1-1.35,3.77,8.75,8.75,0,0,1-4.14,2.08,58.05,58.05,0,0,1-7,1.19,54.92,54.92,0,0,0-9.64,2,14.12,14.12,0,0,0-6.61,4Q0,45.72,0,50.69a11.68,11.68,0,0,0,2,6.88,12.05,12.05,0,0,0,5.37,4.24A19.68,19.68,0,0,0,15,63.25,18.92,18.92,0,0,0,25.29,60.66Zm-14-2.2a8.48,8.48,0,0,1-4-2.64,7.74,7.74,0,0,1-1.59-5.17,7.86,7.86,0,0,1,1.67-5.33,10.34,10.34,0,0,1,4.78-2.92,46.59,46.59,0,0,1,7.47-1.67,53,53,0,0,0,5.29-1,23.64,23.64,0,0,0,3.83-1.3,11.42,11.42,0,0,0,2.54-1.5v9a12.57,12.57,0,0,1-1.79,6.46,13.75,13.75,0,0,1-5.13,5,16,16,0,0,1-8.07,1.92A16.61,16.61,0,0,1,11.3,58.46Zm41.17,19V61.9c0-1.68,0-3.21,0-4.6s-.06-2.62-.09-3.72h.21a15.84,15.84,0,0,0,6.18,7.24,17.42,17.42,0,0,0,9.55,2.64,18.36,18.36,0,0,0,10.36-2.92,19.28,19.28,0,0,0,6.88-8.26A29.72,29.72,0,0,0,88,39.78a29.09,29.09,0,0,0-2.58-12.91,18.71,18.71,0,0,0-7-8,18.53,18.53,0,0,0-9.92-2.72,17.69,17.69,0,0,0-6.55,1.2,16.09,16.09,0,0,0-5.42,3.52,18.67,18.67,0,0,0-3.93,5.83h-.21v-9.6H47V77.46Zm6.69-21a14.92,14.92,0,0,1-5.23-6.73A25.68,25.68,0,0,1,52.18,40,25.11,25.11,0,0,1,54,30.1a15.66,15.66,0,0,1,5.31-6.81,14.11,14.11,0,0,1,8.43-2.49,13.19,13.19,0,0,1,7.72,2.28,15,15,0,0,1,5.1,6.55A26,26,0,0,1,82.41,39.9a25.46,25.46,0,0,1-1.8,9.93,15.41,15.41,0,0,1-5.06,6.69,12.85,12.85,0,0,1-7.85,2.41A14.49,14.49,0,0,1,59.16,56.48Zm94-48.9V0h-5.64V7.58Zm-.08,54.85V17.13h-5.44v45.3Zm40.16-1.09a16,16,0,0,0,6.57-5.87,20,20,0,0,0,2.88-8.85h-5.35A13.45,13.45,0,0,1,193,55.7q-3.69,3.22-9.87,3.23a14.78,14.78,0,0,1-8.48-2.45,16.06,16.06,0,0,1-5.62-6.79,23.72,23.72,0,0,1-2-10,23.36,23.36,0,0,1,2-10A15.88,15.88,0,0,1,174.72,23a14.87,14.87,0,0,1,8.44-2.41,16.86,16.86,0,0,1,6.49,1.21,12.06,12.06,0,0,1,4.84,3.65,14,14,0,0,1,2.67,6.05h5.4a18.54,18.54,0,0,0-3.42-8.19A17.11,17.11,0,0,0,192.51,18a22.13,22.13,0,0,0-9.35-1.86,20.52,20.52,0,0,0-11.49,3.19,21.21,21.21,0,0,0-7.49,8.53,26.33,26.33,0,0,0-2.64,11.84,26.71,26.71,0,0,0,2.64,11.9,21.24,21.24,0,0,0,7.49,8.61,20.37,20.37,0,0,0,11.49,3.21A22.36,22.36,0,0,0,193.23,61.34Z"/></g></g></svg>